<svg width="74" height="14" viewBox="0 0 74 14" fill="none" xmlns="http://www.w3.org/2000/svg">
<g clip-path="url(#clip0)">
<path d="M72.6872 0H52.4305C51.9481 0 51.557 0.391097 51.557 0.873543V3.69052C51.557 4.17297 51.9481 4.56406 52.4305 4.56406H72.6872C73.1696 4.56406 73.5607 4.17297 73.5607 3.69052V0.873543C73.5607 0.391097 73.1696 0 72.6872 0Z" fill="#FF3900"/>
<path d="M53.4565 1.21219V2.17633H53.893C54.0546 2.17633 54.1795 2.13451 54.2677 2.05087C54.3559 1.96723 54.4 1.84807 54.4 1.6934C54.4 1.53987 54.3559 1.42129 54.2677 1.33765C54.1795 1.25401 54.0546 1.21219 53.893 1.21219H53.4565ZM53.1093 0.926895H53.893C54.1806 0.926895 54.3977 0.992203 54.5444 1.12282C54.6922 1.25229 54.7661 1.44248 54.7661 1.6934C54.7661 1.94661 54.6922 2.13795 54.5444 2.26742C54.3977 2.39689 54.1806 2.46162 53.893 2.46162H53.4565V3.4928H53.1093V0.926895Z" fill="white"/>
<path d="M55.194 0.926895H55.5429V2.48569C55.5429 2.76067 55.5927 2.95888 55.6924 3.08033C55.7921 3.20063 55.9537 3.26079 56.1771 3.26079C56.3993 3.26079 56.5603 3.20063 56.66 3.08033C56.7597 2.95888 56.8095 2.76067 56.8095 2.48569V0.926895H57.1584V2.52865C57.1584 2.86321 57.0754 3.11584 56.9092 3.28656C56.7442 3.45728 56.5002 3.54264 56.1771 3.54264C55.8528 3.54264 55.6076 3.45728 55.4415 3.28656C55.2765 3.11584 55.194 2.86321 55.194 2.52865V0.926895Z" fill="white"/>
<path d="M58.1586 2.26742V3.2075H58.7155C58.9022 3.2075 59.0403 3.16913 59.1297 3.09236C59.2202 3.01445 59.2654 2.89586 59.2654 2.7366C59.2654 2.5762 59.2202 2.45819 59.1297 2.38257C59.0403 2.3058 58.9022 2.26742 58.7155 2.26742H58.1586ZM58.1586 1.21219V1.98557H58.6725C58.8421 1.98557 58.9681 1.95406 59.0506 1.89104C59.1342 1.82688 59.1761 1.7295 59.1761 1.59888C59.1761 1.46942 59.1342 1.3726 59.0506 1.30843C58.9681 1.24427 58.8421 1.2122 58.6725 1.2122L58.1586 1.21219ZM57.8115 0.926895H58.6983C58.9629 0.926895 59.1669 0.981889 59.3101 1.09188C59.4533 1.20187 59.5249 1.35827 59.5249 1.56107C59.5249 1.71803 59.4883 1.84292 59.415 1.93573C59.3416 2.02854 59.2339 2.08639 59.0919 2.10931C59.2626 2.14597 59.3949 2.22274 59.4889 2.3396C59.584 2.45532 59.6315 2.60026 59.6315 2.77441C59.6315 3.00356 59.5536 3.18058 59.3978 3.30547C59.2419 3.43035 59.0203 3.4928 58.7327 3.4928H57.8115V0.926895Z" fill="white"/>
<path d="M60.2244 0.926895H60.5716V3.20063H61.821V3.4928H60.2244V0.926895Z" fill="white"/>
<path d="M62.1837 0.926895H62.5308V3.4928H62.1837V0.926895Z" fill="white"/>
<path d="M64.7599 1.01111V1.34968C64.6281 1.28666 64.5038 1.23968 64.3869 1.20875C64.2701 1.17781 64.1572 1.16235 64.0484 1.16235C63.8593 1.16235 63.7132 1.19901 63.6101 1.27234C63.5081 1.34567 63.4572 1.44993 63.4572 1.58513C63.4572 1.69856 63.4909 1.78449 63.5585 1.84293C63.6273 1.90021 63.7568 1.94661 63.947 1.98213L64.1566 2.0251C64.4156 2.07437 64.6063 2.16144 64.7289 2.28633C64.8527 2.41007 64.9146 2.57621 64.9146 2.78474C64.9146 3.03336 64.8309 3.22183 64.6636 3.35016C64.4975 3.47848 64.2534 3.54265 63.9315 3.54265C63.81 3.54265 63.6806 3.5289 63.5431 3.5014C63.4068 3.4739 63.2653 3.43322 63.1186 3.37937V3.0219C63.2595 3.10095 63.3976 3.16054 63.5328 3.20064C63.668 3.24074 63.8009 3.26079 63.9315 3.26079C64.1297 3.26079 64.2827 3.22183 64.3904 3.14392C64.4981 3.06601 64.5519 2.95487 64.5519 2.81051C64.5519 2.68448 64.513 2.58594 64.4351 2.51491C64.3583 2.44387 64.2317 2.39059 64.0552 2.35507L63.8438 2.31382C63.5849 2.26226 63.3976 2.18149 63.2819 2.0715C63.1661 1.9615 63.1083 1.80855 63.1083 1.61263C63.1083 1.38577 63.1879 1.20703 63.3472 1.07642C63.5076 0.945801 63.7281 0.880493 64.0088 0.880493C64.1291 0.880493 64.2517 0.891373 64.3766 0.913139C64.5015 0.934906 64.6292 0.967568 64.7599 1.01111Z" fill="white"/>
<path d="M65.4559 0.926895H65.8031V1.97869H67.0646V0.926895H67.4117V3.4928H67.0646V2.27086H65.8031V3.4928H65.4559V0.926895Z" fill="white"/>
<path d="M68.1026 0.926895H69.725V1.21906H68.4498V1.97869H69.6717V2.27086H68.4498V3.20063H69.7559V3.4928H68.1026V0.926895Z" fill="white"/>
<path d="M71.5467 2.28977C71.6212 2.31498 71.6934 2.36883 71.7633 2.45132C71.8343 2.53382 71.9053 2.64725 71.9764 2.79161L72.3287 3.49281H71.9557L71.6275 2.83457C71.5427 2.66271 71.4602 2.54871 71.38 2.49257C71.301 2.43643 71.1927 2.40836 71.0552 2.40836H70.6771V3.49281H70.3299V0.92691H71.1136C71.4069 0.92691 71.6258 0.988207 71.7701 1.1108C71.9145 1.2334 71.9867 1.41844 71.9867 1.66592C71.9867 1.82747 71.9489 1.96152 71.8732 2.06807C71.7988 2.17462 71.6899 2.24852 71.5467 2.28977V2.28977ZM70.6771 1.2122V2.12306H71.1136C71.2809 2.12306 71.4069 2.08468 71.4917 2.00792C71.5776 1.93001 71.6206 1.816 71.6206 1.66591C71.6206 1.51582 71.5776 1.40296 71.4917 1.32734C71.4069 1.25057 71.2809 1.2122 71.1136 1.2122H70.6771Z" fill="white"/>
<path fill-rule="evenodd" clip-rule="evenodd" d="M14.1204 11.5189C15.6204 11.5189 16.8464 10.2945 16.8464 8.79205C16.8464 7.2912 15.6204 6.06808 14.1204 6.06808C12.6171 6.06808 11.394 7.2912 11.394 8.79205C11.394 10.2941 12.6171 11.5189 14.1204 11.5189Z" fill="#F47B20"/>
<path d="M11.4239 9.13614L13.2282 9.14147L14.131 7.1331L15.2583 9.88083L15.8502 8.81335L16.8423 8.8109" stroke="black" stroke-width="0.294721"/>
<path d="M7.64226 6.04188H7.87123L7.64226 6.61371V6.04188ZM7.64226 10.8778C7.74384 11.0568 7.86918 11.2105 8.02115 11.3325C8.31771 11.5824 8.69539 11.7061 9.1517 11.7061C9.6371 11.7061 10.0463 11.5386 10.3892 11.2084C10.7279 10.8774 10.8975 10.4736 10.8975 9.99225C10.8975 9.56379 10.7607 9.23691 10.4879 9.01531C10.2142 8.79125 9.92301 8.61142 9.61211 8.47092L9.45236 8.39597L9.30244 8.3296C9.01858 8.18419 8.78509 8.04779 8.59994 7.92245C8.41725 7.79219 8.32427 7.60622 8.32427 7.36127C8.32427 7.11509 8.41725 6.91725 8.60526 6.76323C8.79164 6.60921 9.01858 6.53219 9.28483 6.53219C9.45892 6.53219 9.60515 6.56702 9.72885 6.6342C9.85051 6.70301 9.96725 6.8091 10.0783 6.95861L10.1368 7.05159C10.1553 7.0647 10.1774 7.09091 10.2048 7.13433L10.6976 6.81811C10.5354 6.5326 10.3347 6.3192 10.091 6.16928C9.84887 6.02386 9.58835 5.95054 9.31186 5.95054C8.8367 5.95054 8.45043 6.08203 8.15223 6.35115C7.84993 6.61904 7.70001 6.95903 7.70001 7.3793C7.70001 7.77458 7.83682 8.0781 8.10922 8.29356C8.38079 8.50943 8.67409 8.68352 8.98622 8.82442L9.08738 8.87399L9.18651 8.91577C9.48717 9.06528 9.74196 9.21479 9.95455 9.35775C10.1663 9.50398 10.2712 9.71863 10.2712 10.0029C10.2712 10.324 10.1647 10.5932 9.95086 10.8078C9.7354 11.022 9.46424 11.1302 9.13614 11.1302C8.84695 11.1302 8.6069 11.0413 8.41807 10.8623C8.22677 10.6841 8.09489 10.4285 8.01706 10.0947L7.64307 10.2081V10.8778H7.64226ZM2.16524 10.211L3.90981 5.74901L5.55689 10.2192L7.19414 6.04188H7.64184V6.61371L5.53805 11.9011L3.89342 7.43705L2.1382 11.8953L-7.62939e-06 6.04188H0.676273L2.16524 10.211ZM7.64226 10.2077L7.41287 10.2769C7.46612 10.5026 7.54313 10.7038 7.64226 10.8778V10.2077Z" fill="#F47B20"/>
<path d="M14.1327 5.67528C15.0232 5.68429 15.7695 5.98864 16.3733 6.58299C16.9849 7.19251 17.29 7.93924 17.29 8.82525C17.29 9.70429 16.9861 10.4502 16.3749 11.0601C15.7625 11.6729 15.0195 11.9773 14.1409 11.9773C14.138 11.9773 14.1351 11.9773 14.1327 11.9773V11.3931C14.5931 11.3931 15.0195 11.2805 15.4111 11.056C15.8076 10.8291 16.1161 10.5202 16.3381 10.1299C16.5593 9.73952 16.6711 9.30245 16.6711 8.82483C16.6711 8.34845 16.5593 7.91712 16.3381 7.53413C16.1161 7.14867 15.8039 6.84105 15.4025 6.60838C15.0027 6.37982 14.58 6.2643 14.1327 6.2643V5.67528ZM14.0921 5.67528C14.1052 5.67528 14.1204 5.67528 14.1331 5.67528V6.2643C14.1286 6.2643 14.1257 6.2643 14.1208 6.2643C13.676 6.2643 13.2577 6.37654 12.8604 6.60838C12.4622 6.84064 12.1538 7.15277 11.9293 7.54436C11.7086 7.93678 11.5963 8.37302 11.5963 8.85064C11.5963 9.56624 11.8425 10.1672 12.3361 10.6579C12.8289 11.1494 13.4253 11.3927 14.1208 11.3927C14.1261 11.3927 14.129 11.3927 14.1331 11.3927V11.9769C13.2487 11.9748 12.4999 11.6713 11.8896 11.0626C11.2793 10.4555 10.9712 9.71821 10.9712 8.85105C10.9712 8.27758 11.1117 7.74098 11.3895 7.25108C11.6676 6.75789 12.0485 6.37409 12.5294 6.09391C13.0124 5.81455 13.5314 5.67528 14.0921 5.67528V5.67528Z" fill="white"/>
<path d="M17.501 8.63313C17.6406 8.59216 17.7901 8.57169 17.9507 8.57169C18.3739 8.57169 18.7175 8.71014 18.9801 8.98458C19.2422 9.25821 19.3746 9.57976 19.3746 9.95251C19.3746 10.2143 19.3123 10.4596 19.1865 10.6894C19.0604 10.9172 18.8162 11.2309 18.4546 11.6197L17.3072 12.86H19.4372V13.3048H16.3036L18.0662 11.3993C18.4255 11.0167 18.6565 10.7345 18.7659 10.5465C18.8728 10.3642 18.9268 10.168 18.9268 9.96235C18.9268 9.70429 18.8289 9.48145 18.6356 9.29384C18.4423 9.10788 18.2051 9.01284 17.9237 9.01284C17.7648 9.01284 17.6181 9.0407 17.4878 9.09927C17.4989 8.98745 17.5046 8.87398 17.5046 8.76052C17.5038 8.71792 17.503 8.67491 17.501 8.63313V8.63313Z" fill="white"/>
<path d="M26.5701 9.70935C26.5701 10.1818 26.4866 10.5959 26.3196 10.9519C26.1526 11.3079 25.9131 11.5825 25.6011 11.7759C25.2913 11.9692 24.9353 12.0659 24.5332 12.0659C24.1355 12.0659 23.7806 11.9703 23.4686 11.7792C23.1566 11.588 22.9149 11.3156 22.7435 10.9618C22.5721 10.6058 22.4854 10.1971 22.4832 9.73572V9.49841C22.4832 9.026 22.5677 8.61072 22.7369 8.25256C22.9083 7.89221 23.1489 7.61646 23.4587 7.42529C23.7708 7.23193 24.1267 7.13525 24.5266 7.13525C24.9265 7.13525 25.2814 7.23193 25.5912 7.42529C25.9032 7.61646 26.1438 7.89221 26.313 8.25256C26.4844 8.61072 26.5701 9.0249 26.5701 9.49512V9.70935ZM25.5681 9.49182C25.5681 8.98865 25.478 8.60632 25.2979 8.34485C25.1177 8.08337 24.8606 7.95264 24.5266 7.95264C24.1948 7.95264 23.9388 8.08228 23.7587 8.34155C23.5785 8.59863 23.4873 8.97656 23.4851 9.47534V9.70935C23.4851 10.1993 23.5752 10.5795 23.7554 10.8497C23.9355 11.12 24.1948 11.2551 24.5332 11.2551C24.865 11.2551 25.1199 11.1255 25.2979 10.8662C25.4758 10.6047 25.5659 10.2246 25.5681 9.72583V9.49182ZM30.4362 10.2499C30.4362 10.7992 30.3109 11.2397 30.0604 11.5715C29.8121 11.9011 29.476 12.0659 29.0519 12.0659C28.6915 12.0659 28.4004 11.9407 28.1785 11.6902V13.3711H27.226V8.43384H28.1093L28.1422 8.7832C28.3729 8.50635 28.674 8.36792 29.0453 8.36792C29.4847 8.36792 29.8264 8.53052 30.0703 8.85571C30.3142 9.18091 30.4362 9.62915 30.4362 10.2004V10.2499ZM29.4836 10.1807C29.4836 9.84888 29.4243 9.5929 29.3057 9.41272C29.1892 9.23254 29.0189 9.14246 28.7948 9.14246C28.496 9.14246 28.2905 9.25671 28.1785 9.48523V10.9453C28.2949 11.1804 28.5026 11.298 28.8014 11.298C29.2562 11.298 29.4836 10.9255 29.4836 10.1807ZM32.6708 12.0659C32.1478 12.0659 31.7216 11.9055 31.392 11.5847C31.0646 11.2639 30.9009 10.8365 30.9009 10.3026V10.2103C30.9009 9.85217 30.9701 9.53247 31.1085 9.25122C31.2469 8.96777 31.4425 8.75024 31.6952 8.59863C31.9501 8.44482 32.2401 8.36792 32.5653 8.36792C33.0531 8.36792 33.4365 8.52173 33.7156 8.82935C33.9968 9.13696 34.1375 9.57312 34.1375 10.1378V10.5267H31.8666C31.8973 10.7596 31.9896 10.9464 32.1434 11.087C32.2994 11.2277 32.4961 11.298 32.7334 11.298C33.1003 11.298 33.3871 11.165 33.5936 10.8992L34.0616 11.4232C33.9188 11.6254 33.7255 11.7836 33.4816 11.8978C33.2377 12.0099 32.9674 12.0659 32.6708 12.0659ZM32.562 9.13916C32.373 9.13916 32.2192 9.20288 32.1006 9.33032C31.9841 9.45776 31.9094 9.64014 31.8765 9.87744H33.2014V9.80164C33.197 9.5907 33.1399 9.4281 33.03 9.31384C32.9202 9.19739 32.7642 9.13916 32.562 9.13916ZM35.558 8.43384L35.5876 8.84583C35.8425 8.52722 36.1842 8.36792 36.6127 8.36792C36.9906 8.36792 37.2719 8.47888 37.4564 8.70081C37.641 8.92273 37.7355 9.25452 37.7399 9.69617V12H36.7874V9.71924C36.7874 9.51709 36.7434 9.37097 36.6555 9.28088C36.5676 9.1886 36.4215 9.14246 36.2172 9.14246C35.9491 9.14246 35.748 9.25671 35.614 9.48523V12H34.6615V8.43384H35.558ZM40.3173 10.329H38.4617V9.56104H40.3173V10.329ZM45.0502 12H44.0614V9.94336H42.1333V12H41.1445V7.20117H42.1333V9.14575H44.0614V7.20117H45.0502V12ZM47.4957 12.0659C46.9728 12.0659 46.5465 11.9055 46.2169 11.5847C45.8895 11.2639 45.7258 10.8365 45.7258 10.3026V10.2103C45.7258 9.85217 45.795 9.53247 45.9335 9.25122C46.0719 8.96777 46.2675 8.75024 46.5201 8.59863C46.775 8.44482 47.0651 8.36792 47.3903 8.36792C47.8781 8.36792 48.2615 8.52173 48.5405 8.82935C48.8218 9.13696 48.9624 9.57312 48.9624 10.1378V10.5267H46.6915C46.7223 10.7596 46.8146 10.9464 46.9684 11.087C47.1244 11.2277 47.321 11.298 47.5583 11.298C47.9253 11.298 48.212 11.165 48.4186 10.8992L48.8866 11.4232C48.7438 11.6254 48.5504 11.7836 48.3065 11.8978C48.0626 12.0099 47.7924 12.0659 47.4957 12.0659ZM47.387 9.13916C47.198 9.13916 47.0442 9.20288 46.9255 9.33032C46.8091 9.45776 46.7344 9.64014 46.7014 9.87744H48.0264V9.80164C48.022 9.5907 47.9648 9.4281 47.855 9.31384C47.7451 9.19739 47.5891 9.13916 47.387 9.13916ZM51.5728 12C51.5288 11.9143 51.4969 11.8077 51.4772 11.6803C51.2465 11.9374 50.9465 12.0659 50.5774 12.0659C50.228 12.0659 49.938 11.9648 49.7073 11.7627C49.4788 11.5605 49.3645 11.3057 49.3645 10.998C49.3645 10.6201 49.504 10.3301 49.7831 10.1279C50.0643 9.92578 50.4697 9.82361 50.9993 9.82141H51.4376V9.61707C51.4376 9.45227 51.3948 9.32043 51.3091 9.22156C51.2256 9.12268 51.0927 9.07324 50.9103 9.07324C50.7499 9.07324 50.6235 9.11169 50.5312 9.1886C50.4412 9.2655 50.3961 9.37097 50.3961 9.505H49.4436C49.4436 9.29846 49.5073 9.1073 49.6348 8.93152C49.7622 8.75574 49.9424 8.61841 50.1753 8.51953C50.4082 8.41846 50.6697 8.36792 50.9597 8.36792C51.3992 8.36792 51.7474 8.47888 52.0045 8.70081C52.2638 8.92053 52.3934 9.23035 52.3934 9.63025V11.176C52.3956 11.5144 52.4429 11.7704 52.5352 11.944V12H51.5728ZM50.785 11.3375C50.9257 11.3375 51.0553 11.3068 51.174 11.2452C51.2926 11.1815 51.3805 11.0969 51.4376 10.9915V10.3784H51.0817C50.6049 10.3784 50.3511 10.5432 50.3203 10.8728L50.317 10.9288C50.317 11.0475 50.3588 11.1453 50.4423 11.2222C50.5258 11.2991 50.64 11.3375 50.785 11.3375ZM54.1304 12H53.1746V6.9375H54.1304V12ZM56.0585 7.55713V8.43384H56.6682V9.13257H56.0585V10.9124C56.0585 11.0442 56.0837 11.1387 56.1343 11.1958C56.1848 11.2529 56.2815 11.2815 56.4243 11.2815C56.5298 11.2815 56.6232 11.2738 56.7045 11.2584V11.9802C56.5177 12.0374 56.3254 12.0659 56.1277 12.0659C55.4597 12.0659 55.1191 11.7286 55.106 11.0541V9.13257H54.5852V8.43384H55.106V7.55713H56.0585ZM58.1283 8.82275C58.381 8.51953 58.6985 8.36792 59.0808 8.36792C59.8542 8.36792 60.2465 8.81726 60.2574 9.71594V12H59.3049V9.74231C59.3049 9.53796 59.261 9.38745 59.1731 9.29077C59.0852 9.19189 58.9391 9.14246 58.7347 9.14246C58.4557 9.14246 58.2535 9.25012 58.1283 9.46545V12H57.1758V6.9375H58.1283V8.82275ZM62.4591 11.298C62.6349 11.298 62.7777 11.2496 62.8876 11.153C62.9974 11.0563 63.0546 10.9277 63.059 10.7673H63.9521C63.95 11.009 63.884 11.231 63.7544 11.4331C63.6248 11.6331 63.4468 11.7891 63.2205 11.9011C62.9963 12.011 62.748 12.0659 62.4756 12.0659C61.9658 12.0659 61.5637 11.9044 61.2693 11.5814C60.9749 11.2562 60.8276 10.808 60.8276 10.2367V10.1741C60.8276 9.62476 60.9738 9.1864 61.266 8.85901C61.5582 8.53162 61.9592 8.36792 62.469 8.36792C62.915 8.36792 63.2721 8.49536 63.5402 8.75024C63.8104 9.00293 63.9478 9.34021 63.9521 9.76208H63.059C63.0546 9.57751 62.9974 9.4281 62.8876 9.31384C62.7777 9.19739 62.6327 9.13916 62.4525 9.13916C62.2306 9.13916 62.0625 9.22046 61.9482 9.38306C61.8362 9.54346 61.7802 9.80493 61.7802 10.1675V10.2664C61.7802 10.6333 61.8362 10.897 61.9482 11.0574C62.0603 11.2178 62.2306 11.298 62.4591 11.298ZM66.5625 12C66.5186 11.9143 66.4867 11.8077 66.4669 11.6803C66.2362 11.9374 65.9363 12.0659 65.5671 12.0659C65.2178 12.0659 64.9277 11.9648 64.697 11.7627C64.4685 11.5605 64.3542 11.3057 64.3542 10.998C64.3542 10.6201 64.4938 10.3301 64.7728 10.1279C65.0541 9.92578 65.4595 9.82361 65.989 9.82141H66.4274V9.61707C66.4274 9.45227 66.3845 9.32043 66.2988 9.22156C66.2153 9.12268 66.0824 9.07324 65.9 9.07324C65.7396 9.07324 65.6133 9.11169 65.521 9.1886C65.4309 9.2655 65.3859 9.37097 65.3859 9.505H64.4333C64.4333 9.29846 64.4971 9.1073 64.6245 8.93152C64.752 8.75574 64.9321 8.61841 65.165 8.51953C65.3979 8.41846 65.6594 8.36792 65.9495 8.36792C66.3889 8.36792 66.7372 8.47888 66.9943 8.70081C67.2535 8.92053 67.3832 9.23035 67.3832 9.63025V11.176C67.3854 11.5144 67.4326 11.7704 67.5249 11.944V12H66.5625ZM65.7748 11.3375C65.9154 11.3375 66.045 11.3068 66.1637 11.2452C66.2823 11.1815 66.3702 11.0969 66.4274 10.9915V10.3784H66.0714C65.5946 10.3784 65.3408 10.5432 65.3101 10.8728L65.3068 10.9288C65.3068 11.0475 65.3485 11.1453 65.432 11.2222C65.5155 11.2991 65.6298 11.3375 65.7748 11.3375ZM70.1188 9.32703C69.9891 9.30945 69.8749 9.30066 69.776 9.30066C69.4156 9.30066 69.1794 9.42261 69.0674 9.6665V12H68.1149V8.43384H69.0146L69.041 8.85901C69.2322 8.53162 69.4969 8.36792 69.8353 8.36792C69.9408 8.36792 70.0397 8.3822 70.132 8.41077L70.1188 9.32703ZM72.1556 12.0659C71.6327 12.0659 71.2064 11.9055 70.8768 11.5847C70.5494 11.2639 70.3857 10.8365 70.3857 10.3026V10.2103C70.3857 9.85217 70.455 9.53247 70.5934 9.25122C70.7318 8.96777 70.9274 8.75024 71.1801 8.59863C71.4349 8.44482 71.725 8.36792 72.0502 8.36792C72.538 8.36792 72.9214 8.52173 73.2004 8.82935C73.4817 9.13696 73.6223 9.57312 73.6223 10.1378V10.5267H71.3514C71.3822 10.7596 71.4745 10.9464 71.6283 11.087C71.7843 11.2277 71.981 11.298 72.2183 11.298C72.5852 11.298 72.8719 11.165 73.0785 10.8992L73.5465 11.4232C73.4037 11.6254 73.2103 11.7836 72.9664 11.8978C72.7225 12.0099 72.4523 12.0659 72.1556 12.0659ZM72.0469 9.13916C71.8579 9.13916 71.7041 9.20288 71.5854 9.33032C71.469 9.45776 71.3943 9.64014 71.3613 9.87744H72.6863V9.80164C72.6819 9.5907 72.6248 9.4281 72.5149 9.31384C72.405 9.19739 72.249 9.13916 72.0469 9.13916Z" fill="white"/>
</g>
<defs>
<clipPath id="clip0">
<rect width="73.5607" height="13.3048" fill="white"/>
</clipPath>
</defs>
</svg>
