<svg width="74" height="13" viewBox="0 0 74 13" fill="none" xmlns="http://www.w3.org/2000/svg">
<g clip-path="url(#clip0)">
<path fill-rule="evenodd" clip-rule="evenodd" d="M14.2047 11.255C15.7137 11.255 16.947 10.0587 16.947 8.59062C16.947 7.12416 15.7137 5.92906 14.2047 5.92906C12.6924 5.92906 11.462 7.12416 11.462 8.59062C11.462 10.0583 12.6924 11.255 14.2047 11.255Z" fill="#F47B20"/>
<path d="M11.4921 8.92683L13.3072 8.93203L14.2154 6.96968L15.3494 9.65445L15.9449 8.61144L16.9429 8.60904" stroke="black" stroke-width="0.294721"/>
<path d="M7.68789 5.90346H7.91823L7.68789 6.46219V5.90346ZM7.68789 10.6286C7.79008 10.8035 7.91617 10.9536 8.06905 11.0729C8.36738 11.317 8.74731 11.4379 9.20635 11.4379C9.69465 11.4379 10.1063 11.2742 10.4512 10.9516C10.792 10.6282 10.9626 10.2336 10.9626 9.76332C10.9626 9.34468 10.8249 9.02529 10.5505 8.80876C10.2752 8.58983 9.98227 8.41413 9.66951 8.27685L9.50881 8.20361L9.35799 8.13876C9.07243 7.99668 8.83755 7.86341 8.65129 7.74094C8.46751 7.61366 8.37398 7.43196 8.37398 7.19262C8.37398 6.95208 8.46751 6.75877 8.65665 6.60828C8.84414 6.45779 9.07243 6.38254 9.34028 6.38254C9.5154 6.38254 9.6625 6.41657 9.78695 6.4822C9.90933 6.54944 10.0268 6.6531 10.1384 6.79919L10.1974 6.89004C10.2159 6.90284 10.2382 6.92846 10.2658 6.97088L10.7615 6.6619C10.5983 6.38294 10.3964 6.17442 10.1512 6.02793C9.90768 5.88585 9.64561 5.81421 9.36746 5.81421C8.88947 5.81421 8.50089 5.94269 8.20091 6.20564C7.89681 6.46739 7.74599 6.79959 7.74599 7.21023C7.74599 7.59646 7.88362 7.89303 8.15764 8.10355C8.43084 8.31447 8.72589 8.48457 9.03988 8.62225L9.14165 8.67068L9.24137 8.7115C9.54383 8.85758 9.80013 9.00367 10.014 9.14336C10.227 9.28624 10.3325 9.49597 10.3325 9.77373C10.3325 10.0875 10.2254 10.3505 10.0103 10.5602C9.79354 10.7695 9.52076 10.8752 9.19069 10.8752C8.89978 10.8752 8.6583 10.7883 8.46834 10.6134C8.2759 10.4393 8.14323 10.1896 8.06494 9.86338L7.68871 9.97424V10.6286H7.68789ZM2.17817 9.97705L3.93316 5.61729L5.59007 9.98505L7.2371 5.90346H7.68748V6.46219L5.57112 11.6284L3.91667 7.26666L2.15097 11.6228L-7.62939e-06 5.90346H0.680312L2.17817 9.97705ZM7.68789 9.97385L7.45714 10.0415C7.51071 10.262 7.58817 10.4585 7.68789 10.6286V9.97385Z" fill="#F47B20"/>
<path d="M14.2171 5.54526C15.1129 5.55406 15.8637 5.85144 16.4711 6.43218C17.0863 7.02773 17.3933 7.75735 17.3933 8.62306C17.3933 9.48196 17.0875 10.2108 16.4727 10.8067C15.8567 11.4055 15.1092 11.7028 14.2253 11.7028C14.2224 11.7028 14.2195 11.7028 14.2171 11.7028V11.1321C14.6802 11.1321 15.1092 11.0221 15.5031 10.8027C15.902 10.581 16.2123 10.2792 16.4356 9.8978C16.6581 9.51638 16.7706 9.08933 16.7706 8.62266C16.7706 8.15718 16.6581 7.73574 16.4356 7.36152C16.2123 6.9849 15.8983 6.68432 15.4945 6.45698C15.0923 6.23365 14.667 6.12079 14.2171 6.12079V5.54526ZM14.1763 5.54526C14.1895 5.54526 14.2047 5.54526 14.2175 5.54526V6.12079C14.213 6.12079 14.2101 6.12079 14.2051 6.12079C13.7576 6.12079 13.3369 6.23045 12.9372 6.45698C12.5367 6.68392 12.2264 6.9889 12.0006 7.37152C11.7785 7.75494 11.6656 8.18119 11.6656 8.64787C11.6656 9.34707 11.9132 9.93422 12.4097 10.4137C12.9055 10.894 13.5054 11.1317 14.2051 11.1317C14.2105 11.1317 14.2134 11.1317 14.2175 11.1317V11.7025C13.3278 11.7005 12.5746 11.4039 11.9606 10.8091C11.3466 10.216 11.0367 9.49556 11.0367 8.64827C11.0367 8.08794 11.1781 7.56363 11.4575 7.08495C11.7373 6.60307 12.1205 6.22806 12.6042 5.9543C13.0901 5.68134 13.6122 5.54526 14.1763 5.54526V5.54526Z" fill="white"/>
<path d="M17.6055 8.43534C17.746 8.39531 17.8964 8.37531 18.0579 8.37531C18.4836 8.37531 18.8293 8.51058 19.0934 8.77874C19.3572 9.0461 19.4903 9.36028 19.4903 9.7245C19.4903 9.98024 19.4276 10.22 19.3011 10.4445C19.1742 10.6671 18.9286 10.9736 18.5648 11.3535L17.4106 12.5654H19.5533V13H16.401L18.1741 11.1381C18.5355 10.7643 18.7679 10.4885 18.8779 10.3048C18.9855 10.1267 19.0399 9.93503 19.0399 9.73411C19.0399 9.48196 18.9414 9.26423 18.7469 9.08092C18.5524 8.89921 18.3138 8.80636 18.0307 8.80636C17.8708 8.80636 17.7233 8.83357 17.5923 8.8908C17.6034 8.78154 17.6092 8.67068 17.6092 8.55981C17.6084 8.51819 17.6075 8.47616 17.6055 8.43534V8.43534Z" fill="white"/>
<path d="M24.4564 8.48705C24.4564 8.97695 24.3698 9.40648 24.1967 9.77562C24.0235 10.1448 23.7751 10.4296 23.4515 10.6301C23.1303 10.8306 22.7611 10.9309 22.3441 10.9309C21.9317 10.9309 21.5637 10.8318 21.2401 10.6335C20.9166 10.4353 20.6659 10.1527 20.4882 9.78587C20.3104 9.41673 20.2204 8.9929 20.2181 8.51439V8.2683C20.2181 7.77839 20.3059 7.34772 20.4813 6.9763C20.6591 6.60261 20.9086 6.31664 21.2299 6.11839C21.5534 5.91787 21.9226 5.81761 22.3373 5.81761C22.752 5.81761 23.12 5.91787 23.4413 6.11839C23.7649 6.31664 24.0144 6.60261 24.1898 6.9763C24.3676 7.34772 24.4564 7.77725 24.4564 8.26488V8.48705ZM23.4174 8.26146C23.4174 7.73965 23.3239 7.34317 23.1371 7.07201C22.9502 6.80085 22.6836 6.66527 22.3373 6.66527C21.9932 6.66527 21.7278 6.79971 21.5409 7.06859C21.3541 7.33519 21.2595 7.72712 21.2572 8.24437V8.48705C21.2572 8.99518 21.3506 9.38939 21.5375 9.66966C21.7243 9.94994 21.9932 10.0901 22.3441 10.0901C22.6882 10.0901 22.9525 9.95563 23.1371 9.68675C23.3217 9.41559 23.4151 9.02139 23.4174 8.50414V8.26146ZM28.4657 9.04759C28.4657 9.61725 28.3358 10.0741 28.0761 10.4182C27.8186 10.76 27.4699 10.9309 27.0302 10.9309C26.6565 10.9309 26.3545 10.801 26.1244 10.5412V12.2844H25.1366V7.16429H26.0526L26.0868 7.5266C26.3261 7.23949 26.6382 7.09593 27.0233 7.09593C27.4791 7.09593 27.8334 7.26455 28.0863 7.60179C28.3392 7.93903 28.4657 8.40387 28.4657 8.99632V9.04759ZM27.4779 8.97581C27.4779 8.63174 27.4164 8.36628 27.2933 8.17943C27.1726 7.99258 26.996 7.89915 26.7636 7.89915C26.4537 7.89915 26.2406 8.01764 26.1244 8.25462V9.76878C26.2452 10.0126 26.4605 10.1345 26.7704 10.1345C27.2421 10.1345 27.4779 9.74828 27.4779 8.97581ZM30.7831 10.9309C30.2408 10.9309 29.7987 10.7646 29.4569 10.4319C29.1174 10.0992 28.9476 9.65599 28.9476 9.10228V9.00658C28.9476 8.63516 29.0194 8.30361 29.163 8.01195C29.3065 7.718 29.5093 7.49242 29.7714 7.33519C30.0357 7.17568 30.3365 7.09593 30.6737 7.09593C31.1796 7.09593 31.5772 7.25544 31.8666 7.57445C32.1583 7.89346 32.3041 8.34577 32.3041 8.93138V9.3347H29.9491C29.981 9.57624 30.0767 9.76992 30.2362 9.91576C30.398 10.0616 30.6019 10.1345 30.848 10.1345C31.2286 10.1345 31.5259 9.99665 31.7401 9.72093L32.2255 10.2644C32.0774 10.474 31.8768 10.6381 31.6239 10.7566C31.371 10.8728 31.0907 10.9309 30.7831 10.9309ZM30.6703 7.89574C30.4743 7.89574 30.3148 7.96182 30.1918 8.09398C30.071 8.22614 29.9935 8.41527 29.9594 8.66136H31.3334V8.58275C31.3288 8.364 31.2696 8.19538 31.1556 8.07689C31.0417 7.95612 30.8799 7.89574 30.6703 7.89574ZM33.7772 7.16429L33.808 7.59154C34.0723 7.26113 34.4266 7.09593 34.871 7.09593C35.2629 7.09593 35.5546 7.211 35.746 7.44115C35.9374 7.67129 36.0354 8.01537 36.0399 8.47337V10.8625H35.0521V8.4973C35.0521 8.28766 35.0066 8.13613 34.9154 8.04271C34.8243 7.94701 34.6727 7.89915 34.4608 7.89915C34.1828 7.89915 33.9743 8.01764 33.8353 8.25462V10.8625H32.8475V7.16429H33.7772ZM38.7128 9.12962H36.7885V8.33324H38.7128V9.12962ZM43.621 10.8625H42.5956V8.72972H40.5961V10.8625H39.5707V5.88597H40.5961V7.90257H42.5956V5.88597H43.621V10.8625ZM46.1571 10.9309C45.6148 10.9309 45.1727 10.7646 44.8309 10.4319C44.4914 10.0992 44.3217 9.65599 44.3217 9.10228V9.00658C44.3217 8.63516 44.3934 8.30361 44.537 8.01195C44.6806 7.718 44.8834 7.49242 45.1454 7.33519C45.4097 7.17568 45.7105 7.09593 46.0477 7.09593C46.5536 7.09593 46.9512 7.25544 47.2406 7.57445C47.5323 7.89346 47.6781 8.34577 47.6781 8.93138V9.3347H45.3231C45.355 9.57624 45.4507 9.76992 45.6102 9.91576C45.772 10.0616 45.976 10.1345 46.2221 10.1345C46.6026 10.1345 46.9 9.99665 47.1141 9.72093L47.5995 10.2644C47.4514 10.474 47.2509 10.6381 46.9979 10.7566C46.745 10.8728 46.4647 10.9309 46.1571 10.9309ZM46.0443 7.89574C45.8484 7.89574 45.6889 7.96182 45.5658 8.09398C45.445 8.22614 45.3676 8.41527 45.3334 8.66136H46.7074V8.58275C46.7028 8.364 46.6436 8.19538 46.5297 8.07689C46.4157 7.95612 46.254 7.89574 46.0443 7.89574ZM50.3851 10.8625C50.3396 10.7737 50.3065 10.6632 50.286 10.531C50.0468 10.7976 49.7357 10.9309 49.3529 10.9309C48.9906 10.9309 48.6898 10.8261 48.4506 10.6164C48.2136 10.4068 48.0951 10.1425 48.0951 9.82347C48.0951 9.43154 48.2398 9.13076 48.5292 8.92113C48.8209 8.71149 49.2413 8.60553 49.7904 8.60326H50.245V8.39134C50.245 8.22044 50.2006 8.08372 50.1117 7.98119C50.0251 7.87865 49.8873 7.82738 49.6981 7.82738C49.5318 7.82738 49.4008 7.86725 49.3051 7.94701C49.2116 8.02676 49.1649 8.13613 49.1649 8.27513H48.1771C48.1771 8.06094 48.2432 7.8627 48.3754 7.6804C48.5075 7.49811 48.6944 7.3557 48.9359 7.25316C49.1775 7.14834 49.4486 7.09593 49.7494 7.09593C50.2051 7.09593 50.5663 7.211 50.8329 7.44115C51.1018 7.66901 51.2362 7.9903 51.2362 8.40501V10.008C51.2385 10.359 51.2875 10.6244 51.3832 10.8044V10.8625H50.3851ZM49.5682 10.1755C49.7141 10.1755 49.8485 10.1436 49.9716 10.0798C50.0946 10.0137 50.1858 9.92601 50.245 9.81664V9.18089H49.8759C49.3814 9.18089 49.1182 9.35179 49.0863 9.69359L49.0829 9.75169C49.0829 9.87474 49.1262 9.97614 49.2128 10.0559C49.2994 10.1356 49.4179 10.1755 49.5682 10.1755ZM53.0375 10.8625H52.0463V5.61253H53.0375V10.8625ZM55.037 6.25511V7.16429H55.6693V7.8889H55.037V9.7346C55.037 9.87132 55.0632 9.9693 55.1156 10.0285C55.168 10.0878 55.2683 10.1174 55.4164 10.1174C55.5258 10.1174 55.6226 10.1094 55.7069 10.0935V10.842C55.5132 10.9013 55.3139 10.9309 55.1088 10.9309C54.4161 10.9309 54.0629 10.5811 54.0492 9.88158V7.8889H53.5092V7.16429H54.0492V6.25511H55.037ZM57.1835 7.56761C57.4455 7.25316 57.7748 7.09593 58.1713 7.09593C58.9734 7.09593 59.3801 7.56192 59.3915 8.49388V10.8625H58.4037V8.52122C58.4037 8.30931 58.3581 8.15322 58.267 8.05296C58.1758 7.95042 58.0243 7.89915 57.8124 7.89915C57.523 7.89915 57.3134 8.01081 57.1835 8.23412V10.8625H56.1957V5.61253H57.1835V7.56761ZM61.6747 10.1345C61.857 10.1345 62.0051 10.0844 62.119 9.98412C62.233 9.88386 62.2922 9.75055 62.2968 9.58421H63.223C63.2208 9.83486 63.1524 10.065 63.018 10.2746C62.8835 10.482 62.6989 10.6438 62.4642 10.76C62.2318 10.8739 61.9743 10.9309 61.6918 10.9309C61.1631 10.9309 60.7461 10.7634 60.4408 10.4285C60.1355 10.0912 59.9828 9.62637 59.9828 9.03392V8.96898C59.9828 8.39932 60.1343 7.94473 60.4374 7.60521C60.7404 7.26569 61.1563 7.09593 61.6849 7.09593C62.1475 7.09593 62.5178 7.22809 62.7958 7.49242C63.0761 7.75446 63.2185 8.10423 63.223 8.54173H62.2968C62.2922 8.35033 62.233 8.19538 62.119 8.07689C62.0051 7.95612 61.8547 7.89574 61.6679 7.89574C61.4377 7.89574 61.2634 7.98005 61.1449 8.14867C61.0287 8.31501 60.9706 8.58617 60.9706 8.96214V9.06468C60.9706 9.44522 61.0287 9.71865 61.1449 9.88499C61.2611 10.0513 61.4377 10.1345 61.6747 10.1345ZM65.9301 10.8625C65.8845 10.7737 65.8514 10.6632 65.8309 10.531C65.5917 10.7976 65.2806 10.9309 64.8978 10.9309C64.5355 10.9309 64.2348 10.8261 63.9955 10.6164C63.7585 10.4068 63.64 10.1425 63.64 9.82347C63.64 9.43154 63.7847 9.13076 64.0741 8.92113C64.3658 8.71149 64.7862 8.60553 65.3353 8.60326H65.7899V8.39134C65.7899 8.22044 65.7455 8.08372 65.6566 7.98119C65.57 7.87865 65.4322 7.82738 65.2431 7.82738C65.0767 7.82738 64.9457 7.86725 64.85 7.94701C64.7566 8.02676 64.7098 8.13613 64.7098 8.27513H63.7221C63.7221 8.06094 63.7881 7.8627 63.9203 7.6804C64.0525 7.49811 64.2393 7.3557 64.4808 7.25316C64.7224 7.14834 64.9935 7.09593 65.2943 7.09593C65.7501 7.09593 66.1112 7.211 66.3778 7.44115C66.6467 7.66901 66.7811 7.9903 66.7811 8.40501V10.008C66.7834 10.359 66.8324 10.6244 66.9281 10.8044V10.8625H65.9301ZM65.1132 10.1755C65.259 10.1755 65.3934 10.1436 65.5165 10.0798C65.6395 10.0137 65.7307 9.92601 65.7899 9.81664V9.18089H65.4208C64.9263 9.18089 64.6631 9.35179 64.6312 9.69359L64.6278 9.75169C64.6278 9.87474 64.6711 9.97614 64.7577 10.0559C64.8443 10.1356 64.9628 10.1755 65.1132 10.1755ZM69.6181 8.09056C69.4836 8.07233 69.3651 8.06322 69.2626 8.06322C68.8889 8.06322 68.6439 8.18968 68.5277 8.44261V10.8625H67.5399V7.16429H68.473L68.5004 7.60521C68.6986 7.26569 68.9732 7.09593 69.3241 7.09593C69.4335 7.09593 69.536 7.11074 69.6317 7.14037L69.6181 8.09056ZM71.7304 10.9309C71.188 10.9309 70.746 10.7646 70.4042 10.4319C70.0647 10.0992 69.8949 9.65599 69.8949 9.10228V9.00658C69.8949 8.63516 69.9667 8.30361 70.1102 8.01195C70.2538 7.718 70.4566 7.49242 70.7186 7.33519C70.983 7.17568 71.2837 7.09593 71.621 7.09593C72.1268 7.09593 72.5245 7.25544 72.8139 7.57445C73.1055 7.89346 73.2514 8.34577 73.2514 8.93138V9.3347H70.8964C70.9283 9.57624 71.024 9.76992 71.1835 9.91576C71.3453 10.0616 71.5492 10.1345 71.7953 10.1345C72.1758 10.1345 72.4732 9.99665 72.6874 9.72093L73.1727 10.2644C73.0246 10.474 72.8241 10.6381 72.5712 10.7566C72.3182 10.8728 72.038 10.9309 71.7304 10.9309ZM71.6176 7.89574C71.4216 7.89574 71.2621 7.96182 71.139 8.09398C71.0183 8.22614 70.9408 8.41527 70.9066 8.66136H72.2806V8.58275C72.2761 8.364 72.2168 8.19538 72.1029 8.07689C71.989 7.95612 71.8272 7.89574 71.6176 7.89574Z" fill="white"/>
</g>
<path d="M57.6957 0.0717621H72.5252C72.7882 0.0717621 73 0.283535 73 0.546591V3.17854C73 3.4416 72.7882 3.65337 72.5252 3.65337H59.1685C58.9055 3.65337 58.5684 2.97153 58.5684 2.70847V0.515254C58.5684 0.252198 57.4326 0.0717621 57.6957 0.0717621Z" fill="#FF3900"/>
<path d="M61.4237 0.995148V1.74906H61.765C61.8914 1.74906 61.989 1.71636 62.058 1.65096C62.127 1.58556 62.1615 1.49238 62.1615 1.37143C62.1615 1.25138 62.127 1.15865 62.058 1.09325C61.989 1.02785 61.8914 0.995148 61.765 0.995148H61.4237ZM61.1522 0.772064H61.765C61.9899 0.772064 62.1597 0.823131 62.2744 0.925266C62.3899 1.0265 62.4477 1.17523 62.4477 1.37143C62.4477 1.56943 62.3899 1.71905 62.2744 1.82029C62.1597 1.92153 61.9899 1.97214 61.765 1.97214H61.4237V2.77847H61.1522V0.772064Z" fill="white"/>
<path d="M63.6276 0.956175C63.4305 0.956175 63.2738 1.02964 63.1573 1.17657C63.0417 1.3235 62.9839 1.52374 62.9839 1.77728C62.9839 2.02993 63.0417 2.22972 63.1573 2.37665C63.2738 2.52358 63.4305 2.59704 63.6276 2.59704C63.8247 2.59704 63.9806 2.52358 64.0953 2.37665C64.2109 2.22972 64.2687 2.02993 64.2687 1.77728C64.2687 1.52374 64.2109 1.3235 64.0953 1.17657C63.9806 1.02964 63.8247 0.956175 63.6276 0.956175ZM63.6276 0.735779C63.909 0.735779 64.1338 0.830297 64.3023 1.01934C64.4707 1.20748 64.5549 1.46013 64.5549 1.77728C64.5549 2.09354 64.4707 2.34619 64.3023 2.53523C64.1338 2.72337 63.909 2.81744 63.6276 2.81744C63.3454 2.81744 63.1197 2.72337 62.9503 2.53523C62.7819 2.34708 62.6977 2.09444 62.6977 1.77728C62.6977 1.46013 62.7819 1.20748 62.9503 1.01934C63.1197 0.830297 63.3454 0.735779 63.6276 0.735779Z" fill="white"/>
<path d="M65.931 1.83776C65.9893 1.85747 66.0457 1.89958 66.1004 1.96408C66.1559 2.02859 66.2115 2.11729 66.267 2.23017L66.5425 2.77847H66.2509L65.9942 2.26377C65.9279 2.12938 65.8634 2.04024 65.8007 1.99634C65.7389 1.95244 65.6542 1.93048 65.5467 1.93048H65.251V2.77847H64.9796V0.772064H65.5924C65.8217 0.772064 65.9929 0.819996 66.1057 0.915859C66.2186 1.01172 66.2751 1.15641 66.2751 1.34993C66.2751 1.47625 66.2455 1.58108 66.1864 1.6644C66.1281 1.74772 66.043 1.8055 65.931 1.83776L65.931 1.83776ZM65.251 0.995151V1.7074H65.5924C65.7232 1.7074 65.8217 1.67739 65.888 1.61737C65.9552 1.55645 65.9888 1.46731 65.9888 1.34994C65.9888 1.23257 65.9552 1.14433 65.888 1.0852C65.8217 1.02517 65.7232 0.99516 65.5924 0.99516L65.251 0.995151Z" fill="white"/>
<path d="M66.4189 0.772064H68.1162V1.00052H67.4039V2.77847H67.1311V1.00052H66.4189V0.772064Z" fill="white"/>
<path d="M68.8378 1.03949L68.4696 2.03799H69.2074L68.8378 1.03949ZM68.6846 0.772064H68.9924L69.7571 2.77847H69.4748L69.2921 2.26376H68.3876L68.2049 2.77847H67.9186L68.6846 0.772064Z" fill="white"/>
<path d="M70.0487 0.772064H70.3201V2.55001H71.2971V2.77847H70.0487V0.772064Z" fill="white"/>
<path d="M33.8407 1.85303C33.8407 2.45568 33.6687 2.91727 33.3248 3.23779C32.9826 3.55831 32.4876 3.71858 31.8399 3.71858H30.8032V0.0576019H31.9526C32.5502 0.0576019 33.0143 0.21536 33.3448 0.530874C33.6754 0.846389 33.8407 1.28711 33.8407 1.85303V1.85303ZM33.0343 1.87306C33.0343 1.08678 32.6871 0.69364 31.9926 0.69364H31.5795V3.07753H31.9125C32.6604 3.07753 33.0343 2.67604 33.0343 1.87306V1.87306Z" fill="white"/>
<path d="M36.7078 3.71858H34.5994V0.0576019H36.7078V0.69364H35.3757V1.49745H36.6152V2.13349H35.3757V3.07753H36.7078V3.71858Z" fill="white"/>
<path d="M39.5625 0.0576019H40.3463L39.1017 3.71858H38.2554L37.0133 0.0576019H37.7971L38.4857 2.23616C38.5241 2.3647 38.5634 2.51494 38.6034 2.68689C38.6452 2.85717 38.671 2.9757 38.6811 3.04247C38.6994 2.88889 38.762 2.62012 38.8689 2.23616L39.5625 0.0576019Z" fill="white"/>
<path d="M42.918 3.71858H40.8095V0.0576019H42.918V0.69364H41.5858V1.49745H42.8253V2.13349H41.5858V3.07753H42.918V3.71858Z" fill="white"/>
<path d="M43.6842 3.71858V0.0576019H44.4605V3.07753H45.9454V3.71858H43.6842Z" fill="white"/>
<path d="M49.9018 1.88307C49.9018 2.48906 49.7516 2.95482 49.4511 3.28035C49.1506 3.60588 48.7199 3.76865 48.159 3.76865C47.5981 3.76865 47.1674 3.60588 46.8669 3.28035C46.5664 2.95482 46.4162 2.48739 46.4162 1.87806C46.4162 1.26874 46.5664 0.803812 46.8669 0.483288C47.1691 0.161097 47.6014 0 48.164 0C48.7266 0 49.1565 0.16193 49.4536 0.485791C49.7524 0.809653 49.9018 1.27541 49.9018 1.88307V1.88307ZM47.23 1.88307C47.23 2.29207 47.3076 2.60007 47.4629 2.80708C47.6181 3.01408 47.8502 3.11759 48.159 3.11759C48.7784 3.11759 49.088 2.70608 49.088 1.88307C49.088 1.05839 48.78 0.646054 48.164 0.646054C47.8552 0.646054 47.6223 0.75039 47.4654 0.959064C47.3085 1.16607 47.23 1.47407 47.23 1.88307Z" fill="white"/>
<path d="M51.4419 1.78041H51.6973C51.936 1.78041 52.1146 1.73367 52.2332 1.64018C52.3517 1.54503 52.4109 1.40731 52.4109 1.22701C52.4109 1.04505 52.3609 0.910661 52.2607 0.823853C52.1622 0.737044 52.007 0.69364 51.7949 0.69364H51.4419V1.78041ZM53.1947 1.19947C53.1947 1.59344 53.0712 1.89477 52.8241 2.10344C52.5787 2.31211 52.229 2.41645 51.7749 2.41645H51.4419V3.71858H50.6656V0.0576019H51.835C52.2791 0.0576019 52.6163 0.153592 52.8467 0.345572C53.0787 0.535883 53.1947 0.820515 53.1947 1.19947V1.19947Z" fill="white"/>
<path d="M55.9993 3.71858H53.8909V0.0576019H55.9993V0.69364H54.6671V1.49745H55.9066V2.13349H54.6671V3.07753H55.9993V3.71858Z" fill="white"/>
<path d="M57.5418 1.68276H57.7922C58.0376 1.68276 58.2188 1.64185 58.3356 1.56005C58.4525 1.47825 58.5109 1.34971 58.5109 1.17443C58.5109 1.00081 58.4508 0.877274 58.3306 0.803821C58.2121 0.730367 58.0276 0.69364 57.7772 0.69364H57.5418V1.68276ZM57.5418 2.31378V3.71858H56.7655V0.0576019H57.8323C58.3298 0.0576019 58.6979 0.148584 58.9366 0.330548C59.1753 0.510842 59.2947 0.785457 59.2947 1.15439C59.2947 1.36974 59.2354 1.56172 59.1169 1.73033C58.9984 1.89727 58.8306 2.02832 58.6136 2.12347C59.1645 2.94648 59.5234 3.47818 59.6903 3.71858H58.8289L57.955 2.31378H57.5418Z" fill="white"/>
<defs>
<clipPath id="clip0">
<rect width="74" height="13" fill="white"/>
</clipPath>
</defs>
</svg>
